<svg width="7" height="12" viewBox="0 0 7 12" fill="none" xmlns="http://www.w3.org/2000/svg">
<path d="M6.82292 5.80721C6.82292 5.9461 6.80139 6.07631 6.75833 6.19784C6.71528 6.31936 6.64132 6.43221 6.53646 6.53638L1.74479 11.328C1.55382 11.519 1.31076 11.6145 1.01562 11.6145C0.720486 11.6145 0.47743 11.519 0.286458 11.328C0.0954857 11.1371 -3.14934e-08 10.894 -4.43944e-08 10.5989C-5.72953e-08 10.3037 0.0954856 10.0607 0.286458 9.86971L4.34896 5.80721L0.286458 1.74471C0.0954853 1.55374 -4.50394e-07 1.31068 -4.63295e-07 1.01554C-4.76196e-07 0.720405 0.0954852 0.47735 0.286457 0.286378C0.47743 0.0954065 0.720485 -8.10938e-05 1.01562 -8.11067e-05C1.31076 -8.11196e-05 1.55382 0.0954065 1.74479 0.286378L6.53646 5.07804C6.64062 5.18221 6.71458 5.29506 6.75833 5.41659C6.80208 5.53811 6.82361 5.66832 6.82292 5.80721Z" fill="#004035"/>
</svg>
